  0
SECTION
  2
HEADER
  9
$ACADVER
  1
AC1009
  9
$EXTMIN
 10
0.0
 20
0.0
 30
0.0
  9
$EXTMAX
 10
1000.0
 20
1000.0
 30
0.0
  9
$FILLMODE
 70
 0
  9
$SPLFRAME
 70
 1
  0
ENDSEC
  0
SECTION
  2
TABLES
  0
TABLE
  2
LAYER
 70
1
  0
LAYER
  2
0
 70
     0
 62
     7
  6
CONTINUOUS
  0
ENDTAB
  0
ENDSEC
  0
SECTION
  2
ENTITIES
  0
POLYLINE
  8
0
 62
     0
 66
     1
 10
0
 20
0
 30
0.0
 70
     1
 40
0
 41
0
  0
VERTEX
  8
0
 10
2.04249
 20
1.09418
 30
0.0
 40
0
 41
0
  0
VERTEX
  8
0
 10
2.26129
 20
1.09418
 30
0.0
 40
0
 41
0
  0
VERTEX
  8
0
 10
2.26129
 20
0.875325
 30
0.0
 40
0
 41
0
  0
VERTEX
  8
0
 10
2.04249
 20
0.875325
 30
0.0
 40
0
 41
0
  0
VERTEX
  8
0
 10
2.04249
 20
1.09418
 30
0.0
 40
0
 41
0
  0
SEQEND
 8
0
  0
POLYLINE
  8
0
 62
     0
 66
     1
 10
0
 20
0
 30
0.0
 70
     1
 40
0
 41
0
  0
VERTEX
  8
0
 10
1.75071
 20
1.38596
 30
0.0
 40
0
 41
0
  0
VERTEX
  8
0
 10
1.96951
 20
1.38596
 30
0.0
 40
0
 41
0
  0
VERTEX
  8
0
 10
1.96951
 20
1.1671
 30
0.0
 40
0
 41
0
  0
VERTEX
  8
0
 10
1.75071
 20
1.1671
 30
0.0
 40
0
 41
0
  0
VERTEX
  8
0
 10
1.75071
 20
1.38596
 30
0.0
 40
0
 41
0
  0
SEQEND
 8
0
  0
POLYLINE
  8
0
 62
     0
 66
     1
 10
0
 20
0
 30
0.0
 70
     1
 40
0
 41
0
  0
VERTEX
  8
0
 10
0
 20
1.09418
 30
0.0
 40
0
 41
0
  0
VERTEX
  8
0
 10
0.218858
 20
1.09418
 30
0.0
 40
0
 41
0
  0
VERTEX
  8
0
 10
0.218858
 20
0.875325
 30
0.0
 40
0
 41
0
  0
VERTEX
  8
0
 10
0
 20
0.875325
 30
0.0
 40
0
 41
0
  0
VERTEX
  8
0
 10
0
 20
1.09418
 30
0.0
 40
0
 41
0
  0
SEQEND
 8
0
  0
POLYLINE
  8
0
 62
     0
 66
     1
 10
0
 20
0
 30
0.0
 70
     1
 40
0
 41
0
  0
VERTEX
  8
0
 10
1.1671
 20
1.96951
 30
0.0
 40
0
 41
0
  0
VERTEX
  8
0
 10
1.38596
 20
1.96951
 30
0.0
 40
0
 41
0
  0
VERTEX
  8
0
 10
1.38596
 20
1.75065
 30
0.0
 40
0
 41
0
  0
VERTEX
  8
0
 10
1.1671
 20
1.75065
 30
0.0
 40
0
 41
0
  0
VERTEX
  8
0
 10
1.1671
 20
1.96951
 30
0.0
 40
0
 41
0
  0
SEQEND
 8
0
  0
POLYLINE
  8
0
 62
     0
 66
     1
 10
0
 20
0
 30
0.0
 70
     1
 40
0
 41
0
  0
VERTEX
  8
0
 10
1.45888
 20
1.67774
 30
0.0
 40
0
 41
0
  0
VERTEX
  8
0
 10
1.67774
 20
1.67774
 30
0.0
 40
0
 41
0
  0
VERTEX
  8
0
 10
1.67774
 20
1.45888
 30
0.0
 40
0
 41
0
  0
VERTEX
  8
0
 10
1.45888
 20
1.45888
 30
0.0
 40
0
 41
0
  0
VERTEX
  8
0
 10
1.45888
 20
1.67774
 30
0.0
 40
0
 41
0
  0
SEQEND
 8
0
  0
POLYLINE
  8
0
 62
     0
 66
     1
 10
0
 20
0
 30
0.0
 70
     1
 40
0
 41
0
  0
VERTEX
  8
0
 10
1.75071
 20
1.09418
 30
0.0
 40
0
 41
0
  0
VERTEX
  8
0
 10
1.96951
 20
1.09418
 30
0.0
 40
0
 41
0
  0
VERTEX
  8
0
 10
1.96951
 20
0.875325
 30
0.0
 40
0
 41
0
  0
VERTEX
  8
0
 10
1.75071
 20
0.875325
 30
0.0
 40
0
 41
0
  0
VERTEX
  8
0
 10
1.75071
 20
1.09418
 30
0.0
 40
0
 41
0
  0
SEQEND
 8
0
  0
POLYLINE
  8
0
 62
     0
 66
     1
 10
0
 20
0
 30
0.0
 70
     1
 40
0
 41
0
  0
VERTEX
  8
0
 10
1.45888
 20
1.38596
 30
0.0
 40
0
 41
0
  0
VERTEX
  8
0
 10
1.67774
 20
1.38596
 30
0.0
 40
0
 41
0
  0
VERTEX
  8
0
 10
1.67774
 20
1.1671
 30
0.0
 40
0
 41
0
  0
VERTEX
  8
0
 10
1.45888
 20
1.1671
 30
0.0
 40
0
 41
0
  0
VERTEX
  8
0
 10
1.45888
 20
1.38596
 30
0.0
 40
0
 41
0
  0
SEQEND
 8
0
  0
POLYLINE
  8
0
 62
     0
 66
     1
 10
0
 20
0
 30
0.0
 70
     1
 40
0
 41
0
  0
VERTEX
  8
0
 10
1.1671
 20
1.67774
 30
0.0
 40
0
 41
0
  0
VERTEX
  8
0
 10
1.38596
 20
1.67774
 30
0.0
 40
0
 41
0
  0
VERTEX
  8
0
 10
1.38596
 20
1.45888
 30
0.0
 40
0
 41
0
  0
VERTEX
  8
0
 10
1.1671
 20
1.45888
 30
0.0
 40
0
 41
0
  0
VERTEX
  8
0
 10
1.1671
 20
1.67774
 30
0.0
 40
0
 41
0
  0
SEQEND
 8
0
  0
POLYLINE
  8
0
 62
     0
 66
     1
 10
0
 20
0
 30
0.0
 70
     1
 40
0
 41
0
  0
VERTEX
  8
0
 10
0.875325
 20
1.96951
 30
0.0
 40
0
 41
0
  0
VERTEX
  8
0
 10
1.09418
 20
1.96951
 30
0.0
 40
0
 41
0
  0
VERTEX
  8
0
 10
1.09418
 20
1.75065
 30
0.0
 40
0
 41
0
  0
VERTEX
  8
0
 10
0.875325
 20
1.75065
 30
0.0
 40
0
 41
0
  0
VERTEX
  8
0
 10
0.875325
 20
1.96951
 30
0.0
 40
0
 41
0
  0
SEQEND
 8
0
  0
POLYLINE
  8
0
 62
     0
 66
     1
 10
0
 20
0
 30
0.0
 70
     1
 40
0
 41
0
  0
VERTEX
  8
0
 10
0.58355
 20
1.67774
 30
0.0
 40
0
 41
0
  0
VERTEX
  8
0
 10
0.802408
 20
1.67774
 30
0.0
 40
0
 41
0
  0
VERTEX
  8
0
 10
0.802408
 20
1.45888
 30
0.0
 40
0
 41
0
  0
VERTEX
  8
0
 10
0.58355
 20
1.45888
 30
0.0
 40
0
 41
0
  0
VERTEX
  8
0
 10
0.58355
 20
1.67774
 30
0.0
 40
0
 41
0
  0
SEQEND
 8
0
  0
POLYLINE
  8
0
 62
     0
 66
     1
 10
0
 20
0
 30
0.0
 70
     1
 40
0
 41
0
  0
VERTEX
  8
0
 10
0.291775
 20
1.38596
 30
0.0
 40
0
 41
0
  0
VERTEX
  8
0
 10
0.510633
 20
1.38596
 30
0.0
 40
0
 41
0
  0
VERTEX
  8
0
 10
0.510633
 20
1.1671
 30
0.0
 40
0
 41
0
  0
VERTEX
  8
0
 10
0.291775
 20
1.1671
 30
0.0
 40
0
 41
0
  0
VERTEX
  8
0
 10
0.291775
 20
1.38596
 30
0.0
 40
0
 41
0
  0
SEQEND
 8
0
  0
POLYLINE
  8
0
 62
     0
 66
     1
 10
0
 20
0
 30
0.0
 70
     1
 40
0
 41
0
  0
VERTEX
  8
0
 10
0.291775
 20
0.802408
 30
0.0
 40
0
 41
0
  0
VERTEX
  8
0
 10
0.510633
 20
0.802408
 30
0.0
 40
0
 41
0
  0
VERTEX
  8
0
 10
0.510633
 20
0.58355
 30
0.0
 40
0
 41
0
  0
VERTEX
  8
0
 10
0.291775
 20
0.58355
 30
0.0
 40
0
 41
0
  0
VERTEX
  8
0
 10
0.291775
 20
0.802408
 30
0.0
 40
0
 41
0
  0
SEQEND
 8
0
  0
POLYLINE
  8
0
 62
     0
 66
     1
 10
0
 20
0
 30
0.0
 70
     1
 40
0
 41
0
  0
VERTEX
  8
0
 10
0.291775
 20
0.510579
 30
0.0
 40
0
 41
0
  0
VERTEX
  8
0
 10
0.510633
 20
0.510579
 30
0.0
 40
0
 41
0
  0
VERTEX
  8
0
 10
0.510633
 20
0.291775
 30
0.0
 40
0
 41
0
  0
VERTEX
  8
0
 10
0.291775
 20
0.291775
 30
0.0
 40
0
 41
0
  0
VERTEX
  8
0
 10
0.291775
 20
0.510579
 30
0.0
 40
0
 41
0
  0
SEQEND
 8
0
  0
POLYLINE
  8
0
 62
     0
 66
     1
 10
0
 20
0
 30
0.0
 70
     1
 40
0
 41
0
  0
VERTEX
  8
0
 10
0.291775
 20
0.218804
 30
0.0
 40
0
 41
0
  0
VERTEX
  8
0
 10
0.510633
 20
0.218804
 30
0.0
 40
0
 41
0
  0
VERTEX
  8
0
 10
0.510633
 20
0
 30
0.0
 40
0
 41
0
  0
VERTEX
  8
0
 10
0.291775
 20
0
 30
0.0
 40
0
 41
0
  0
VERTEX
  8
0
 10
0.291775
 20
0.218804
 30
0.0
 40
0
 41
0
  0
SEQEND
 8
0
  0
POLYLINE
  8
0
 62
     0
 66
     1
 10
0
 20
0
 30
0.0
 70
     1
 40
0
 41
0
  0
VERTEX
  8
0
 10
0.291775
 20
1.09418
 30
0.0
 40
0
 41
0
  0
VERTEX
  8
0
 10
0.510633
 20
1.09418
 30
0.0
 40
0
 41
0
  0
VERTEX
  8
0
 10
0.510633
 20
0.875325
 30
0.0
 40
0
 41
0
  0
VERTEX
  8
0
 10
0.291775
 20
0.875325
 30
0.0
 40
0
 41
0
  0
VERTEX
  8
0
 10
0.291775
 20
1.09418
 30
0.0
 40
0
 41
0
  0
SEQEND
 8
0
  0
POLYLINE
  8
0
 62
     0
 66
     1
 10
0
 20
0
 30
0.0
 70
     1
 40
0
 41
0
  0
VERTEX
  8
0
 10
0.58355
 20
1.38596
 30
0.0
 40
0
 41
0
  0
VERTEX
  8
0
 10
0.802408
 20
1.38596
 30
0.0
 40
0
 41
0
  0
VERTEX
  8
0
 10
0.802408
 20
1.1671
 30
0.0
 40
0
 41
0
  0
VERTEX
  8
0
 10
0.58355
 20
1.1671
 30
0.0
 40
0
 41
0
  0
VERTEX
  8
0
 10
0.58355
 20
1.38596
 30
0.0
 40
0
 41
0
  0
SEQEND
 8
0
  0
POLYLINE
  8
0
 62
     0
 66
     1
 10
0
 20
0
 30
0.0
 70
     1
 40
0
 41
0
  0
VERTEX
  8
0
 10
0.875325
 20
1.67774
 30
0.0
 40
0
 41
0
  0
VERTEX
  8
0
 10
1.09418
 20
1.67774
 30
0.0
 40
0
 41
0
  0
VERTEX
  8
0
 10
1.09418
 20
1.45888
 30
0.0
 40
0
 41
0
  0
VERTEX
  8
0
 10
0.875325
 20
1.45888
 30
0.0
 40
0
 41
0
  0
VERTEX
  8
0
 10
0.875325
 20
1.67774
 30
0.0
 40
0
 41
0
  0
SEQEND
 8
0
  0
POLYLINE
  8
0
 62
     0
 66
     1
 10
0
 20
0
 30
0.0
 70
     1
 40
0
 41
0
  0
VERTEX
  8
0
 10
0.875325
 20
1.38596
 30
0.0
 40
0
 41
0
  0
VERTEX
  8
0
 10
1.09418
 20
1.38596
 30
0.0
 40
0
 41
0
  0
VERTEX
  8
0
 10
1.09418
 20
1.1671
 30
0.0
 40
0
 41
0
  0
VERTEX
  8
0
 10
0.875325
 20
1.1671
 30
0.0
 40
0
 41
0
  0
VERTEX
  8
0
 10
0.875325
 20
1.38596
 30
0.0
 40
0
 41
0
  0
SEQEND
 8
0
  0
POLYLINE
  8
0
 62
     0
 66
     1
 10
0
 20
0
 30
0.0
 70
     1
 40
0
 41
0
  0
VERTEX
  8
0
 10
0.58355
 20
1.09418
 30
0.0
 40
0
 41
0
  0
VERTEX
  8
0
 10
0.802408
 20
1.09418
 30
0.0
 40
0
 41
0
  0
VERTEX
  8
0
 10
0.802408
 20
0.875325
 30
0.0
 40
0
 41
0
  0
VERTEX
  8
0
 10
0.58355
 20
0.875325
 30
0.0
 40
0
 41
0
  0
VERTEX
  8
0
 10
0.58355
 20
1.09418
 30
0.0
 40
0
 41
0
  0
SEQEND
 8
0
  0
POLYLINE
  8
0
 62
     0
 66
     1
 10
0
 20
0
 30
0.0
 70
     1
 40
0
 41
0
  0
VERTEX
  8
0
 10
1.1671
 20
1.38596
 30
0.0
 40
0
 41
0
  0
VERTEX
  8
0
 10
1.38596
 20
1.38596
 30
0.0
 40
0
 41
0
  0
VERTEX
  8
0
 10
1.38596
 20
1.1671
 30
0.0
 40
0
 41
0
  0
VERTEX
  8
0
 10
1.1671
 20
1.1671
 30
0.0
 40
0
 41
0
  0
VERTEX
  8
0
 10
1.1671
 20
1.38596
 30
0.0
 40
0
 41
0
  0
SEQEND
 8
0
  0
POLYLINE
  8
0
 62
     0
 66
     1
 10
0
 20
0
 30
0.0
 70
     1
 40
0
 41
0
  0
VERTEX
  8
0
 10
0.875325
 20
1.09418
 30
0.0
 40
0
 41
0
  0
VERTEX
  8
0
 10
1.09418
 20
1.09418
 30
0.0
 40
0
 41
0
  0
VERTEX
  8
0
 10
1.09418
 20
0.875325
 30
0.0
 40
0
 41
0
  0
VERTEX
  8
0
 10
0.875325
 20
0.875325
 30
0.0
 40
0
 41
0
  0
VERTEX
  8
0
 10
0.875325
 20
1.09418
 30
0.0
 40
0
 41
0
  0
SEQEND
 8
0
  0
POLYLINE
  8
0
 62
     0
 66
     1
 10
0
 20
0
 30
0.0
 70
     1
 40
0
 41
0
  0
VERTEX
  8
0
 10
1.1671
 20
1.09418
 30
0.0
 40
0
 41
0
  0
VERTEX
  8
0
 10
1.38596
 20
1.09418
 30
0.0
 40
0
 41
0
  0
VERTEX
  8
0
 10
1.38596
 20
0.875325
 30
0.0
 40
0
 41
0
  0
VERTEX
  8
0
 10
1.1671
 20
0.875325
 30
0.0
 40
0
 41
0
  0
VERTEX
  8
0
 10
1.1671
 20
1.09418
 30
0.0
 40
0
 41
0
  0
SEQEND
 8
0
  0
POLYLINE
  8
0
 62
     0
 66
     1
 10
0
 20
0
 30
0.0
 70
     1
 40
0
 41
0
  0
VERTEX
  8
0
 10
1.75071
 20
0.510579
 30
0.0
 40
0
 41
0
  0
VERTEX
  8
0
 10
1.96951
 20
0.510579
 30
0.0
 40
0
 41
0
  0
VERTEX
  8
0
 10
1.96951
 20
0.291775
 30
0.0
 40
0
 41
0
  0
VERTEX
  8
0
 10
1.75071
 20
0.291775
 30
0.0
 40
0
 41
0
  0
VERTEX
  8
0
 10
1.75071
 20
0.510579
 30
0.0
 40
0
 41
0
  0
SEQEND
 8
0
  0
POLYLINE
  8
0
 62
     0
 66
     1
 10
0
 20
0
 30
0.0
 70
     1
 40
0
 41
0
  0
VERTEX
  8
0
 10
1.75071
 20
0.218804
 30
0.0
 40
0
 41
0
  0
VERTEX
  8
0
 10
1.96951
 20
0.218804
 30
0.0
 40
0
 41
0
  0
VERTEX
  8
0
 10
1.96951
 20
0
 30
0.0
 40
0
 41
0
  0
VERTEX
  8
0
 10
1.75071
 20
0
 30
0.0
 40
0
 41
0
  0
VERTEX
  8
0
 10
1.75071
 20
0.218804
 30
0.0
 40
0
 41
0
  0
SEQEND
 8
0
  0
POLYLINE
  8
0
 62
     0
 66
     1
 10
0
 20
0
 30
0.0
 70
     1
 40
0
 41
0
  0
VERTEX
  8
0
 10
0.58355
 20
0.802518
 30
0.0
 40
0
 41
0
  0
VERTEX
  8
0
 10
0.802408
 20
0.802518
 30
0.0
 40
0
 41
0
  0
VERTEX
  8
0
 10
0.802408
 20
0.583658
 30
0.0
 40
0
 41
0
  0
VERTEX
  8
0
 10
0.58355
 20
0.583658
 30
0.0
 40
0
 41
0
  0
VERTEX
  8
0
 10
0.58355
 20
0.802518
 30
0.0
 40
0
 41
0
  0
SEQEND
 8
0
  0
POLYLINE
  8
0
 62
     0
 66
     1
 10
0
 20
0
 30
0.0
 70
     1
 40
0
 41
0
  0
VERTEX
  8
0
 10
1.75022
 20
0.802518
 30
0.0
 40
0
 41
0
  0
VERTEX
  8
0
 10
1.96907
 20
0.802518
 30
0.0
 40
0
 41
0
  0
VERTEX
  8
0
 10
1.96907
 20
0.583658
 30
0.0
 40
0
 41
0
  0
VERTEX
  8
0
 10
1.75022
 20
0.583658
 30
0.0
 40
0
 41
0
  0
VERTEX
  8
0
 10
1.75022
 20
0.802518
 30
0.0
 40
0
 41
0
  0
SEQEND
 8
0
  0
POLYLINE
  8
0
 62
     0
 66
     1
 10
0
 20
0
 30
0.0
 70
     1
 40
0
 41
0
  0
VERTEX
  8
0
 10
1.45856
 20
0.802518
 30
0.0
 40
0
 41
0
  0
VERTEX
  8
0
 10
1.6774
 20
0.802518
 30
0.0
 40
0
 41
0
  0
VERTEX
  8
0
 10
1.6774
 20
0.583658
 30
0.0
 40
0
 41
0
  0
VERTEX
  8
0
 10
1.45856
 20
0.583658
 30
0.0
 40
0
 41
0
  0
VERTEX
  8
0
 10
1.45856
 20
0.802518
 30
0.0
 40
0
 41
0
  0
SEQEND
 8
0
  0
POLYLINE
  8
0
 62
     0
 66
     1
 10
0
 20
0
 30
0.0
 70
     1
 40
0
 41
0
  0
VERTEX
  8
0
 10
1.45856
 20
1.09418
 30
0.0
 40
0
 41
0
  0
VERTEX
  8
0
 10
1.6774
 20
1.09418
 30
0.0
 40
0
 41
0
  0
VERTEX
  8
0
 10
1.6774
 20
0.875325
 30
0.0
 40
0
 41
0
  0
VERTEX
  8
0
 10
1.45856
 20
0.875325
 30
0.0
 40
0
 41
0
  0
VERTEX
  8
0
 10
1.45856
 20
1.09418
 30
0.0
 40
0
 41
0
  0
SEQEND
 8
0
  0
POLYLINE
  8
0
 62
     0
 66
     1
 10
0
 20
0
 30
0.0
 70
     1
 40
0
 41
0
  0
VERTEX
  8
0
 10
1.45856
 20
0.510851
 30
0.0
 40
0
 41
0
  0
VERTEX
  8
0
 10
1.6774
 20
0.510851
 30
0.0
 40
0
 41
0
  0
VERTEX
  8
0
 10
1.6774
 20
0.291992
 30
0.0
 40
0
 41
0
  0
VERTEX
  8
0
 10
1.45856
 20
0.291992
 30
0.0
 40
0
 41
0
  0
VERTEX
  8
0
 10
1.45856
 20
0.510851
 30
0.0
 40
0
 41
0
  0
SEQEND
 8
0
  0
POLYLINE
  8
0
 62
     0
 66
     1
 10
0
 20
0
 30
0.0
 70
     1
 40
0
 41
0
  0
VERTEX
  8
0
 10
1.45856
 20
0.219185
 30
0.0
 40
0
 41
0
  0
VERTEX
  8
0
 10
1.6774
 20
0.219185
 30
0.0
 40
0
 41
0
  0
VERTEX
  8
0
 10
1.6774
 20
0.000325521
 30
0.0
 40
0
 41
0
  0
VERTEX
  8
0
 10
1.45856
 20
0.000325521
 30
0.0
 40
0
 41
0
  0
VERTEX
  8
0
 10
1.45856
 20
0.219185
 30
0.0
 40
0
 41
0
  0
SEQEND
 8
0
  0
POLYLINE
  8
0
 62
     0
 66
     1
 10
0
 20
0
 30
0.0
 70
     1
 40
0
 41
0
  0
VERTEX
  8
0
 10
0.58355
 20
0.219185
 30
0.0
 40
0
 41
0
  0
VERTEX
  8
0
 10
0.802408
 20
0.219185
 30
0.0
 40
0
 41
0
  0
VERTEX
  8
0
 10
0.802408
 20
0.000325521
 30
0.0
 40
0
 41
0
  0
VERTEX
  8
0
 10
0.58355
 20
0.000325521
 30
0.0
 40
0
 41
0
  0
VERTEX
  8
0
 10
0.58355
 20
0.219185
 30
0.0
 40
0
 41
0
  0
SEQEND
 8
0
  0
POLYLINE
  8
0
 62
     0
 66
     1
 10
0
 20
0
 30
0.0
 70
     1
 40
0
 41
0
  0
VERTEX
  8
0
 10
0.58355
 20
0.510851
 30
0.0
 40
0
 41
0
  0
VERTEX
  8
0
 10
0.802408
 20
0.510851
 30
0.0
 40
0
 41
0
  0
VERTEX
  8
0
 10
0.802408
 20
0.291992
 30
0.0
 40
0
 41
0
  0
VERTEX
  8
0
 10
0.58355
 20
0.291992
 30
0.0
 40
0
 41
0
  0
VERTEX
  8
0
 10
0.58355
 20
0.510851
 30
0.0
 40
0
 41
0
  0
SEQEND
 8
0
  0
ENDSEC
  0
EOF
